<svg xmlns="http://www.w3.org/2000/svg" xmlns:xlink="http://www.w3.org/1999/xlink" width="200px" height="80px" viewBox="0 0 200 80" version="1.1">
    <!-- Generator: Sketch 48 (47235) - http://www.bohemiancoding.com/sketch -->
    <title>logo</title>
    <desc>Created with Sketch.</desc>
    <defs>
        <radialGradient cx="38.1747213%" cy="86.0776601%" fx="38.1747213%" fy="86.0776601%" r="90.6379431%" gradientTransform="translate(0.381747,0.860777),scale(0.833781,1.000000),rotate(-45.568769),translate(-0.381747,-0.860777)" id="radialGradient-1">
            <stop stop-color="#178F67" offset="0%"/>
            <stop stop-color="#31CC79" stop-opacity="0.55" offset="61.0821026%"/>
            <stop stop-color="#53E68D" stop-opacity="0.8" offset="100%"/>
        </radialGradient>
        <path d="M77.5819539,9.83501416 L71.2491659,9.49982106 C71.2491659,9.49982106 68.8538018,1.17064614 57.8616031,0.423397631 C46.8694044,-0.323850876 39.6765658,0.145500308 39.6765658,0.145500308 C39.6765658,0.145500308 47.8309005,5.29052753 44.5630439,14.4715129 C42.1349503,19.4231612 38.2936298,23.4692542 34.1980721,28.118925 L7.11614732,58.7530847 C32.3261131,58.3867293 47.1890038,58.2035515 51.7048196,58.2035515 C64.3689421,58.2035515 75.0716413,47.3180735 74.6336784,35.2065312 C74.3326764,26.8825395 71.658957,25.0017469 70.7399116,21.3562574 C69.8208662,17.7107678 71.6604983,11.8970614 77.5819539,9.83501416 Z" id="path-2"/>
        <linearGradient x1="54.9723321%" y1="81.5762245%" x2="-8.23595123%" y2="100%" id="linearGradient-3">
            <stop stop-color="#FFFFFF" stop-opacity="0" offset="0%"/>
            <stop stop-color="#D6F056" offset="100%"/>
        </linearGradient>
        <path d="M34.0872936,28.2177762 C20.8317294,43.056087 0,66.664375 0,66.664375 C37.4770771,76.4137655 54.7441968,52.7516626 57.4478406,44.5600109 C61.072771,33.5769936 55.9509283,28.2177762 53.0523252,26.4701213 C43.2233292,20.5439245 35.9306602,26.1543072 34.0872936,28.2177762 Z" id="path-4"/>
        <linearGradient x1="52.4389279%" y1="0%" x2="74.0305759%" y2="89.1130587%" id="linearGradient-5">
            <stop stop-color="#9BEB5E" offset="0%" stop-opacity="0.649999976"/>
            <stop stop-color="#23C26D" offset="100%" stop-opacity="0.649999976"/>
        </linearGradient>
        <path d="M47.4137691,58.3482158 C41.40154,58.3883063 27.9346047,58.56037 7.01296319,58.8644068 L32.9018629,29.5797567 C33.4670371,28.9381166 34.0271468,28.3085002 34.578859,27.6865677 C37.0146153,25.3606314 43.9785295,20.9099676 53.134607,26.4304417 C56.0447995,28.1850841 61.1871205,33.5657289 57.5476968,44.5926588 C56.4920924,47.790988 53.2252503,53.3382651 47.4137691,58.3482158 Z" id="path-6"/>
    </defs>
    <g id="企业管理" stroke="none" stroke-width="1" fill="none" fill-rule="evenodd">
        <g id="logo">
            <g id="Group-6" transform="translate(0.000000, 6.000000)">
                <g id="Group-3">
                    <path d="M120.888707,15.1992464 C120.192135,15.1992464 119.722713,15.0797049 119.480427,14.8406185 C119.238141,14.6015321 119.117,14.1831371 119.117,13.585421 C119.117,13.0175907 119.238141,12.5991957 119.480427,12.3302235 C119.722713,12.0612513 120.192135,11.9267672 120.888707,11.9267672 L145.01119,11.9267672 C145.647191,11.9267672 146.093899,12.0612513 146.351328,12.3302235 C146.608757,12.5991957 146.737469,13.0175907 146.737469,13.585421 C146.737469,14.1831371 146.608757,14.6015321 146.351328,14.8406185 C146.093899,15.0797049 145.647191,15.1992464 145.01119,15.1992464 L131.836953,15.1992464 L130.746671,19.7717516 L139.832352,19.7717516 C140.862067,19.7717516 141.679771,19.8240509 142.285486,19.9286512 C142.891201,20.0332516 143.337909,20.2424491 143.625624,20.55625 C143.913338,20.8700509 144.09505,21.333274 144.170764,21.945933 C144.246479,22.5585919 144.284335,23.3729679 144.284335,24.3890852 L144.284335,29.0512474 L146.919183,29.0512474 C147.555184,29.0512474 148.001892,29.1857315 148.259321,29.4547037 C148.51675,29.723676 148.645462,30.142071 148.645462,30.7099012 C148.645462,31.2478457 148.51675,31.651298 148.259321,31.9202703 C148.001892,32.1892425 147.555184,32.3237266 146.919183,32.3237266 L119.344142,32.3237266 C118.677855,32.3237266 118.223576,32.1892425 117.98129,31.9202703 C117.739004,31.651298 117.617862,31.2478457 117.617862,30.7099012 C117.617862,30.142071 117.739004,29.723676 117.98129,29.4547037 C118.223576,29.1857315 118.677855,29.0512474 119.344142,29.0512474 L124.977264,29.0512474 L126.476401,22.9545738 L121.706419,22.9545738 C121.191561,22.9545738 120.805423,22.8425037 120.547994,22.6183602 C120.290565,22.3942167 120.161853,21.9683503 120.161853,21.3407484 C120.161853,20.2947453 120.676703,19.7717516 121.706419,19.7717516 L127.248684,19.7717516 L128.338966,15.1992464 L120.888707,15.1992464 Z M145.647187,47.699896 C145.647187,49.074643 145.389762,50.0533885 144.874905,50.6361616 C144.360047,51.2189348 143.436345,51.510317 142.103772,51.510317 L125.386119,51.510317 C124.02326,51.510317 123.091987,51.2189348 122.592273,50.6361616 C122.092558,50.0533885 121.842704,49.074643 121.842704,47.699896 L121.842704,39.8100832 C121.842704,38.465222 122.092558,37.5088906 122.592273,36.9410603 C123.091987,36.37323 124.02326,36.0893191 125.386119,36.0893191 L142.103772,36.0893191 C143.436345,36.0893191 144.360047,36.37323 144.874905,36.9410603 C145.389762,37.5088906 145.647187,38.465222 145.647187,39.8100832 L145.647187,47.699896 Z M142.376342,40.168711 C142.376342,39.6606523 142.179488,39.4066268 141.785773,39.4066268 L125.704118,39.4066268 C125.340689,39.4066268 125.158977,39.6606523 125.158977,40.168711 L125.158977,47.4309252 C125.158977,47.9389838 125.340689,48.1930094 125.704118,48.1930094 L141.785773,48.1930094 C142.179488,48.1930094 142.376342,47.9389838 142.376342,47.4309252 L142.376342,40.168711 Z M120.207281,42.8135915 C120.722139,43.2319927 120.971993,43.6728017 120.95685,44.1360317 C120.941707,44.5992617 120.631283,45.1297267 120.025568,45.7274428 C119.238138,46.5343595 118.511291,47.2067801 117.845004,47.7447245 C117.178718,48.282669 116.376157,48.8953188 115.437299,49.5826923 C114.831584,50.0010936 114.256163,50.2476478 113.71102,50.3223623 C113.165876,50.3970768 112.681311,50.2999494 112.257311,50.0309771 C111.83331,49.7620049 111.507743,49.3436099 111.2806,48.7757796 C111.053457,48.2079493 110.970172,47.5056435 111.030744,46.668841 L112.211882,27.9753638 C112.272454,27.3776477 112.015029,27.1236222 111.439599,27.2132796 L107.260186,27.6615644 C106.381899,27.7512219 105.791336,27.6765085 105.488478,27.437422 C105.185621,27.1983356 105.003909,26.7500553 104.943338,26.0925676 C104.882766,25.5247373 104.996336,25.098871 105.284051,24.8149558 C105.571765,24.5310407 106.094187,24.3591999 106.851331,24.2994283 L111.575885,23.8511435 C113.029601,23.7017144 114.097158,23.9333259 114.778587,24.5459849 C115.460017,25.1586439 115.755298,26.2718734 115.664441,27.8857069 L114.574159,45.368815 C114.543873,45.8469878 114.6953,45.9366439 115.028443,45.6377859 C115.543301,45.2193846 115.990009,44.8383463 116.368581,44.4946596 C116.747153,44.1509728 117.148433,43.7699345 117.572434,43.3515333 C118.511292,42.3653017 119.389566,42.1859896 120.207281,42.8135915 Z M129.974388,22.9545738 L128.475251,29.0512474 L140.877205,29.0512474 L140.877205,23.9856289 C140.877205,23.5373418 140.831777,23.253431 140.74092,23.1338877 C140.650063,23.0143445 140.392638,22.9545738 139.968637,22.9545738 L129.974388,22.9545738 Z M117.708719,20.6683212 C116.92129,21.3855805 116.012731,21.2062684 114.983015,20.1303794 C114.135014,19.2338053 113.249169,18.3148306 112.325453,17.3734278 C111.401738,16.4320249 110.364466,15.4532795 109.213608,14.4371622 C108.214178,13.6003596 108.153607,12.703799 109.031894,11.7474532 C109.334752,11.4187094 109.720889,11.2692826 110.190318,11.2991684 C110.659747,11.3290542 111.197312,11.6129651 111.803027,12.1509096 C113.1356,13.3164559 114.241013,14.3400294 115.1193,15.2216606 C115.997587,16.1032918 116.800147,16.9475531 117.527005,17.7544699 C118.102435,18.3521859 118.405288,18.8677083 118.435574,19.3010525 C118.465859,19.7343967 118.223577,20.1901483 117.708719,20.6683212 Z M188.415757,21.1614345 C187.507184,21.7292648 186.575911,22.2672012 185.62191,22.7752599 C184.667909,23.2833185 183.706351,23.7913696 182.737207,24.2994283 C182.918921,24.4787431 183.130918,24.762654 183.373204,25.1511694 C183.61549,25.6592281 183.872915,26.2121072 184.145487,26.8098233 L184.963198,28.6029626 L197.637723,28.6029626 C198.213152,28.6029626 198.637147,28.7299753 198.909718,28.9840047 C199.18229,29.238034 199.318574,29.6639003 199.318574,30.2616164 C199.318574,31.3076196 198.758296,31.8306133 197.637723,31.8306133 L184.145487,31.8306133 L184.145487,34.9686071 L196.274871,34.9686071 C196.8503,34.9686071 197.274294,35.0956198 197.546866,35.3496492 C197.819438,35.6036785 197.955722,36.0295448 197.955722,36.6272609 C197.955722,37.6732641 197.395444,38.1962578 196.274871,38.1962578 L184.145487,38.1962578 L184.145487,41.1997661 L195.956872,41.1997661 C196.532301,41.1997661 196.956296,41.3267789 197.228867,41.5808082 C197.501439,41.8348375 197.637723,42.2607039 197.637723,42.85842 C197.637723,43.456136 197.501439,43.8670597 197.228867,44.0912032 C196.956296,44.3153468 196.532301,44.4274168 195.956872,44.4274168 L184.145487,44.4274168 L184.145487,47.699896 L198.319149,47.699896 C199.439722,47.699896 200,48.2677178 200,49.4033784 C200,50.0010945 199.863716,50.4194894 199.591144,50.6585759 C199.318573,50.8976623 198.894578,51.0172037 198.319149,51.0172037 L166.837265,51.0172037 L166.837265,51.2413462 C166.837265,51.8390622 166.69341,52.2649286 166.405695,52.5189579 C166.117981,52.7729872 165.686415,52.9 165.110986,52.9 C164.505271,52.9 164.073705,52.7729872 163.816276,52.5189579 C163.558847,52.2649286 163.430135,51.8390622 163.430135,51.2413462 L163.430135,31.2926715 C162.794134,31.4421005 162.150571,31.5915273 161.499428,31.7409563 C160.848284,31.8903854 160.189579,32.0398121 159.523292,32.1892412 C158.584434,32.3984418 157.940871,32.4133845 157.592585,32.2340696 C157.244299,32.0547548 157.02473,31.6214172 156.933873,30.9340437 C156.843016,30.3662134 156.9263,29.9403471 157.183729,29.6564319 C157.441158,29.3725168 157.918152,29.1558479 158.614724,29.0064189 C162.2793,28.229388 165.784824,27.2879993 169.1314,26.1822245 C172.477975,25.0764498 177.558369,23.0987419 177.558369,22.9705783 C177.558369,21.3189834 177.558369,20.4268856 177.558369,20.2942849 C177.558369,18.3551414 177.558369,15.4464262 177.558369,11.5681393 C177.558369,10.3727071 178.133789,9.775 179.284648,9.775 C180.435506,9.775 181.010927,10.3727071 181.010927,11.5681393 L181.010927,20.9372921 C181.010927,21.0767592 181.010927,21.2261875 181.010927,21.3855769 C183.665959,19.9909168 185.55881,18.9150332 186.689478,18.1579262 C187.355764,17.7395249 187.9009,17.5303274 188.3249,17.5303274 C188.748901,17.5303274 189.157752,17.7992956 189.551467,18.3372401 C189.914896,18.8452988 190.020895,19.3159932 189.869466,19.7493373 C189.718037,20.1826815 189.233472,20.6533758 188.415757,21.1614345 Z M172.515816,11.7922817 C173.000388,12.1509114 173.250241,12.5468923 173.265384,12.9802365 C173.280527,13.4135806 173.030673,13.9888738 172.515816,14.7061331 C171.243814,16.4693955 169.85069,18.1653895 168.336403,19.7941658 C166.822115,21.4229421 165.110995,23.02928 163.202993,24.6132277 C162.415563,25.2408295 161.794715,25.5770398 161.340428,25.6218685 C160.886142,25.6666972 160.462148,25.4350857 160.068433,24.927027 C159.705004,24.4488542 159.583863,24.0080452 159.705006,23.6045868 C159.826149,23.2011284 160.204715,22.7154914 160.840716,22.1476611 C162.536718,20.7430283 164.156982,19.2188752 165.701555,17.5751559 C167.246129,15.9314367 168.563539,14.3176275 169.653826,12.7336798 C170.168684,11.9865347 170.66082,11.5531971 171.130249,11.4336538 C171.599679,11.3141106 172.061529,11.4336521 172.515816,11.7922817 Z M187.052905,14.6613046 C186.477476,14.0934743 186.151909,13.6003659 186.076194,13.1819647 C186.00048,12.7635634 186.17462,12.3451684 186.598621,11.9267672 C187.052907,11.5083659 187.492044,11.3290538 187.916045,11.3888254 C188.340045,11.448597 188.854895,11.7474505 189.46061,12.285395 C190.823469,13.5405988 192.284735,15.0572806 193.844451,16.835486 C195.404168,18.6136913 196.956289,20.5338254 198.500863,22.5959459 C199.01572,23.2833194 199.303431,23.8511412 199.364002,24.2994283 C199.424574,24.7477153 199.212577,25.1511676 198.728005,25.5097973 C198.182861,25.9281986 197.690725,26.070154 197.251582,25.9356679 C196.812438,25.8011818 196.290017,25.3304874 195.684302,24.5235707 C194.291157,22.6706508 192.920747,20.9671855 191.573031,19.4131237 C190.225315,17.8590619 188.718621,16.275138 187.052905,14.6613046 Z M166.837265,47.699896 L180.783785,47.699896 L180.783785,44.4274168 L166.837265,44.4274168 L166.837265,47.699896 Z M166.837265,34.9686071 L180.783785,34.9686071 L180.783785,31.8306133 L166.837265,31.8306133 L166.837265,34.9686071 Z M166.837265,41.1997661 L180.783785,41.1997661 L180.783785,38.1962578 L166.837265,38.1962578 L166.837265,41.1997661 Z M180.147788,25.5546258 C178.906072,26.0925703 177.649232,26.615564 176.37723,27.1236227 C175.105228,27.6316813 173.787818,28.1247897 172.424959,28.6029626 L181.374354,28.6029626 C181.222926,28.2742187 181.063928,27.9380085 180.897356,27.5943217 C180.730785,27.250635 180.556644,26.899482 180.37493,26.5408524 C180.162929,26.1523369 180.087216,25.823598 180.147788,25.5546258 Z" id="语雀" fill-opacity="0.85" fill="#000000"/>
                    <g id="2-copy-13">
                        <g id="Fill-10-Copy">
                            <use fill="#31CC79" xlink:href="#path-2"/>
                            <use fill-opacity="0.600000024" fill="url(#radialGradient-1)" xlink:href="#path-2"/>
                        </g>
                        <g id="Fill-12-Copy">
                            <use fill="#93E65C" xlink:href="#path-4"/>
                            <use fill-opacity="0.75" fill="url(#linearGradient-3)" style="mix-blend-mode: overlay;" xlink:href="#path-4"/>
                        </g>
                        <g id="Combined-Shape" opacity="0.447805721">
                            <use fill="#60DB69" xlink:href="#path-6"/>
                            <use fill="url(#linearGradient-5)" xlink:href="#path-6"/>
                        </g>
                    </g>
                </g>
            </g>
        </g>
    </g>
</svg>
