<?xml version="1.0" encoding="utf-8"?>
<!-- Generator: Adobe Illustrator 19.0.0, SVG Export Plug-In . SVG Version: 6.00 Build 0)  -->
<svg version="1.1" id="Layer_1" xmlns="http://www.w3.org/2000/svg" xmlns:xlink="http://www.w3.org/1999/xlink" x="0px" y="0px"
	 viewBox="-265 357 80 80" style="enable-background:new -265 357 80 80;" xml:space="preserve">
<style type="text/css">
	.st0{fill:#FFFFFF;}
	.st1{fill:url(#SVGID_1_);}
	.st2{fill:url(#SVGID_2_);}
	.st3{fill:url(#SVGID_3_);}
	.st4{fill:url(#SVGID_4_);}
	.st5{opacity:0.7;fill:url(#SVGID_5_);}
	.st6{opacity:0.7;fill:url(#SVGID_6_);}
	.st7{opacity:0.7;fill:url(#SVGID_7_);}
	.st8{opacity:0.7;fill:url(#SVGID_8_);}
	.st9{opacity:0.74;fill:#FFFFFF;}
	.st10{opacity:0.4;fill:#FFFFFF;}
	.st11{opacity:0.45;fill:url(#SVGID_9_);}
	.st12{opacity:0.36;fill:url(#SVGID_10_);}
	.st13{opacity:0.45;fill:url(#SVGID_11_);}
	.st14{opacity:0.36;fill:url(#SVGID_12_);}
	.st15{opacity:0.5;}
	.st16{opacity:0.45;fill:url(#SVGID_13_);}
	.st17{opacity:0.36;fill:url(#SVGID_14_);}
	.st18{opacity:0.45;fill:url(#SVGID_15_);}
	.st19{opacity:0.36;fill:url(#SVGID_16_);}
	.st20{opacity:0.35;fill:url(#SVGID_17_);}
	.st21{opacity:0.3;fill:url(#SVGID_18_);}
	.st22{opacity:0.25;fill:url(#SVGID_19_);}
	.st23{opacity:0.2;fill:url(#SVGID_20_);}
	.st24{opacity:0.2;fill:url(#SVGID_21_);}
	.st25{opacity:0.2;fill:url(#SVGID_22_);}
	.st26{opacity:0.35;fill:url(#SVGID_23_);}
	.st27{opacity:0.47;fill:url(#SVGID_24_);}
	.st28{opacity:0.63;clip-path:url(#SVGID_26_);}
	.st29{fill:url(#SVGID_27_);}
	.st30{opacity:0.8;}
	.st31{opacity:0.63;clip-path:url(#SVGID_29_);}
	.st32{fill:url(#SVGID_30_);}
	.st33{opacity:0.6;}
	.st34{opacity:0.63;clip-path:url(#SVGID_32_);}
	.st35{fill:url(#SVGID_33_);}
	.st36{opacity:0.4;}
	.st37{opacity:0.63;clip-path:url(#SVGID_35_);}
	.st38{fill:url(#SVGID_36_);}
	.st39{opacity:0.3;}
	.st40{opacity:0.63;clip-path:url(#SVGID_38_);}
	.st41{fill:url(#SVGID_39_);}
	.st42{opacity:0.63;clip-path:url(#SVGID_41_);}
	.st43{fill:url(#SVGID_42_);}
	.st44{opacity:0.63;clip-path:url(#SVGID_44_);}
	.st45{fill:url(#SVGID_45_);}
	.st46{opacity:0.63;clip-path:url(#SVGID_47_);}
	.st47{fill:url(#SVGID_48_);}
</style>
<g>
	<g>
		<path class="st0" d="M-225,433.4c-3.1,0-5.9-1.6-8.2-4.7c-1.7-2.3-3-5.2-4.3-8c-1.3-2.8-2.6-5.7-4-7.1c-1.4-1.4-4.3-2.7-7.2-4
			c-2.8-1.3-5.7-2.6-8-4.3c-3.1-2.3-4.7-5.1-4.7-8.2c0-3.1,1.6-5.8,4.7-8.2c2.3-1.7,5.2-3,8-4.3c2.8-1.3,5.8-2.6,7.2-4
			c1.4-1.4,2.7-4.3,4-7.1c1.3-2.8,2.6-5.7,4.3-8c2.3-3.1,5.1-4.7,8.2-4.7s5.9,1.6,8.2,4.7c1.7,2.3,3,5.2,4.3,8
			c1.3,2.8,2.6,5.7,4,7.1c1.4,1.4,4.3,2.7,7.2,4c2.8,1.3,5.7,2.6,8,4.3c3.1,2.3,4.7,5.1,4.7,8.2c0,3.1-1.6,5.8-4.7,8.2
			c-2.3,1.7-5.2,3-8,4.3c-2.8,1.3-5.8,2.6-7.2,4c-1.4,1.4-2.7,4.3-4,7.1c-1.3,2.8-2.6,5.7-4.3,8C-219.1,431.8-221.9,433.4-225,433.4
			z M-225,367c-2.6,0-4.8,4.8-6.7,9c-1.6,3.5-3.1,6.8-5.3,9c-2.2,2.2-5.5,3.7-9,5.3c-4.2,1.9-9,4.1-9,6.7c0,2.6,4.8,4.8,9,6.7
			c3.5,1.6,6.8,3.1,9,5.3c2.2,2.2,3.7,5.5,5.3,9c1.9,4.2,4.1,9,6.7,9c2.6,0,4.8-4.8,6.7-9c1.6-3.5,3.1-6.8,5.3-9
			c2.2-2.2,5.5-3.7,9-5.3c4.2-1.9,9-4.1,9-6.7c0-2.6-4.8-4.8-9-6.7c-3.5-1.6-6.8-3.1-9-5.3c-2.2-2.2-3.7-5.5-5.3-9
			C-220.2,371.8-222.4,367-225,367z"/>
		<g>
			
				<linearGradient id="SVGID_1_" gradientUnits="userSpaceOnUse" x1="-219.9991" y1="389.3136" x2="-219.9991" y2="360.7267" gradientTransform="matrix(0.7071 -0.7071 0.7071 0.7071 -346.7323 -42.8162)">
				<stop  offset="0" style="stop-color:#2C394C"/>
				<stop  offset="1" style="stop-color:#445B72"/>
			</linearGradient>
			<path class="st1" d="M-248.7,384.5c0.9-0.4,1.9-0.9,2.8-1.3c-1-3.2-1.6-6.1-0.3-7.4c1.8-1.8,6.8,0,11.1,1.6
				c3.6,1.3,7,2.6,10.1,2.6c2.4,0,5-0.8,7.7-1.7c-0.4-0.7-0.7-1.5-1-2.3c-0.5-1.2-1.1-2.4-1.7-3.5c-1.9,0.7-3.7,1.2-5,1.2
				c-2,0-5-1.1-7.9-2.2c-2.9-1.1-5.9-2.2-8.7-2.6c-3.9-0.6-6.9,0.2-9.1,2.4c-2.2,2.2-3,5.3-2.4,9.1c0.3,1.8,0.8,3.7,1.4,5.5
				C-250.7,385.5-249.7,385-248.7,384.5z"/>
			
				<linearGradient id="SVGID_2_" gradientUnits="userSpaceOnUse" x1="-247.0181" y1="408.1438" x2="-247.0181" y2="376.1589" gradientTransform="matrix(0.7071 -0.7071 0.7071 0.7071 -346.7323 -42.8162)">
				<stop  offset="0" style="stop-color:#2C394C"/>
				<stop  offset="1" style="stop-color:#445B72"/>
			</linearGradient>
			<path class="st2" d="M-237.5,420.6c-0.4-0.9-0.8-1.8-1.3-2.7c-3.2,1.1-6.2,1.7-7.5,0.3c-1.8-1.8,0-6.8,1.6-11.1
				c1.3-3.6,2.6-7,2.6-10.1c0-2.4-0.8-5-1.7-7.8c-0.8,0.4-1.5,0.7-2.3,1.1c-1.2,0.5-2.4,1.1-3.5,1.6c0.7,1.9,1.2,3.7,1.2,5.1
				c0,2-1.1,5-2.2,7.9c-1.1,2.9-2.2,5.9-2.6,8.7c-0.6,3.9,0.2,6.9,2.4,9.1c2.2,2.2,5.3,3,9.1,2.4c1.8-0.3,3.7-0.8,5.6-1.5
				C-236.6,422.7-237,421.7-237.5,420.6z"/>
			
				<linearGradient id="SVGID_3_" gradientUnits="userSpaceOnUse" x1="-202.8249" y1="417.9981" x2="-202.8249" y2="386.0134" gradientTransform="matrix(0.7071 -0.7071 0.7071 0.7071 -346.7323 -42.8162)">
				<stop  offset="0" style="stop-color:#2C394C"/>
				<stop  offset="1" style="stop-color:#445B72"/>
			</linearGradient>
			<path class="st3" d="M-208.4,368.8c-1.8,0.3-3.7,0.8-5.6,1.5c0.5,1,1,2,1.4,3.1c0.4,0.9,0.8,1.8,1.3,2.7c3.2-1.1,6.2-1.7,7.5-0.3
				c1.8,1.8,0,6.8-1.6,11.1c-1.3,3.6-2.6,7-2.6,10.1c0,2.4,0.8,5,1.7,7.8c0.8-0.4,1.5-0.7,2.3-1.1c1.2-0.5,2.4-1.1,3.5-1.6
				c-0.7-1.9-1.2-3.7-1.2-5.1c0-2,1.1-5,2.2-7.9c1.1-2.9,2.2-5.9,2.6-8.7c0.6-3.9-0.2-6.9-2.4-9.1
				C-201.4,369-204.5,368.2-208.4,368.8z"/>
			
				<linearGradient id="SVGID_4_" gradientUnits="userSpaceOnUse" x1="-229.8438" y1="433.4304" x2="-229.8438" y2="404.8436" gradientTransform="matrix(0.7071 -0.7071 0.7071 0.7071 -346.7323 -42.8162)">
				<stop  offset="0" style="stop-color:#2C394C"/>
				<stop  offset="1" style="stop-color:#445B72"/>
			</linearGradient>
			<path class="st4" d="M-201.3,409.5c-0.9,0.4-1.9,0.9-2.8,1.3c1,3.2,1.6,6.1,0.3,7.4c-1.8,1.8-6.8,0-11.1-1.6
				c-3.6-1.3-7-2.6-10.1-2.6c-2.4,0-5,0.8-7.7,1.7c0.4,0.7,0.7,1.5,1,2.3c0.5,1.2,1.1,2.4,1.7,3.5c1.9-0.7,3.7-1.2,5-1.2
				c2,0,5,1.1,7.9,2.2c2.9,1.1,5.9,2.2,8.7,2.6c3.9,0.6,6.9-0.2,9.1-2.4c2.2-2.2,3-5.3,2.4-9.1c-0.3-1.8-0.8-3.7-1.4-5.5
				C-199.3,408.5-200.3,409-201.3,409.5z"/>
		</g>
		<g>
			
				<linearGradient id="SVGID_5_" gradientUnits="userSpaceOnUse" x1="-225.2733" y1="428.8095" x2="-217.0561" y2="420.5924" gradientTransform="matrix(0.7071 -0.7071 0.7071 0.7071 -346.7323 -42.8162)">
				<stop  offset="0" style="stop-color:#242F3D"/>
				<stop  offset="1" style="stop-color:#FFFFFF;stop-opacity:0"/>
			</linearGradient>
			<path class="st5" d="M-209,418.6c0,0,12.6,4,12.3-3c0,0,0.1-2.2-1.6-7.5l-5.8,2.7c0,0,1.6,4.6,0.9,6.4
				C-203.8,418.8-205.2,419.5-209,418.6z"/>
			
				<linearGradient id="SVGID_6_" gradientUnits="userSpaceOnUse" x1="-182.1206" y1="453.7454" x2="-173.9035" y2="445.5283" gradientTransform="matrix(-0.7071 -0.7071 0.7071 -0.7071 -651.9351 566.8776)">
				<stop  offset="0" style="stop-color:#242F3D"/>
				<stop  offset="1" style="stop-color:#FFFFFF;stop-opacity:0"/>
			</linearGradient>
			<path class="st6" d="M-203.4,381c0,0,3.9-12.6-3-12.3c0,0-2.2-0.1-7.5,1.6l2.7,5.8c0,0,4.6-1.6,6.4-0.9
				C-203.2,375.8-202.5,377.2-203.4,381z"/>
			
				<linearGradient id="SVGID_7_" gradientUnits="userSpaceOnUse" x1="-207.0565" y1="496.8982" x2="-198.8393" y2="488.6809" gradientTransform="matrix(-0.7071 0.7071 -0.7071 -0.7071 -42.2413 872.0805)">
				<stop  offset="0" style="stop-color:#242F3D"/>
				<stop  offset="1" style="stop-color:#FFFFFF;stop-opacity:0"/>
			</linearGradient>
			<path class="st7" d="M-241,375.4c0,0-12.6-4-12.3,3c0,0-0.1,2.2,1.6,7.5l5.8-2.7c0,0-1.6-4.6-0.9-6.4
				C-246.2,375.2-244.8,374.5-241,375.4z"/>
			
				<linearGradient id="SVGID_8_" gradientUnits="userSpaceOnUse" x1="-250.2092" y1="471.9622" x2="-241.992" y2="463.745" gradientTransform="matrix(0.7071 0.7071 -0.7071 0.7071 262.9615 262.3866)">
				<stop  offset="0" style="stop-color:#242F3D"/>
				<stop  offset="1" style="stop-color:#FFFFFF;stop-opacity:0"/>
			</linearGradient>
			<path class="st8" d="M-246.6,413c0,0-3.9,12.6,3,12.3c0,0,2.2,0.1,7.5-1.6l-2.7-5.8c0,0-4.6,1.6-6.4,0.9
				C-246.8,418.2-247.5,416.8-246.6,413z"/>
		</g>
		<g>
			<path class="st9" d="M-228.9,423.6c0,0,6.1,11.7,10.8,6.6c0,0,1.6-1.5,4.2-6.5l-6-2.2c0,0-2.2,4.4-3.8,5.2
				C-225.5,427.4-226.9,426.9-228.9,423.6z"/>
			<path class="st9" d="M-198.4,400.9c0,0,11.7-6.1,6.6-10.8c0,0-1.5-1.6-6.5-4.2l-2.2,6c0,0,4.4,2.2,5.2,3.8
				C-194.6,397.5-195.1,398.9-198.4,400.9z"/>
			<path class="st10" d="M-221.1,370.4c0,0-6.1-11.7-10.8-6.6c0,0-1.6,1.5-4.2,6.5l6,2.2c0,0,2.2-4.4,3.8-5.2
				C-224.5,366.6-223.1,367.1-221.1,370.4z"/>
			<path class="st10" d="M-251.6,393.1c0,0-11.7,6.1-6.6,10.8c0,0,1.5,1.6,6.5,4.2l2.2-6c0,0-4.4-2.2-5.2-3.8
				C-255.4,396.5-254.9,395.1-251.6,393.1z"/>
		</g>
		<g>
			
				<linearGradient id="SVGID_9_" gradientUnits="userSpaceOnUse" x1="-208.0073" y1="417.9981" x2="-208.0073" y2="404.7968" gradientTransform="matrix(0.7071 -0.7071 0.7071 0.7071 -346.7323 -42.8162)">
				<stop  offset="0" style="stop-color:#242F3D"/>
				<stop  offset="0.1224" style="stop-color:#49525D;stop-opacity:0.8776"/>
				<stop  offset="0.3568" style="stop-color:#898F96;stop-opacity:0.6432"/>
				<stop  offset="0.5703" style="stop-color:#BCBFC3;stop-opacity:0.4297"/>
				<stop  offset="0.7553" style="stop-color:#E0E2E4;stop-opacity:0.2447"/>
				<stop  offset="0.9048" style="stop-color:#F7F7F8;stop-opacity:9.520561e-002"/>
				<stop  offset="1" style="stop-color:#FFFFFF;stop-opacity:0"/>
			</linearGradient>
			<path class="st11" d="M-206.2,389.1c-1,2.8-1.8,5.4-1.8,7.8c0,2.4,0.8,5,1.7,7.8c0.8-0.4,1.5-0.7,2.3-1.1
				c1.2-0.5,2.4-1.1,3.5-1.6c-0.7-1.9-1.2-3.7-1.2-5.1c0-2,1.1-5,2.2-7.9c0.3-0.8,0.6-1.6,0.9-2.5L-206.2,389.1z"/>
			
				<linearGradient id="SVGID_10_" gradientUnits="userSpaceOnUse" x1="-219.6698" y1="433.0837" x2="-219.6698" y2="421.6006" gradientTransform="matrix(0.7071 -0.7071 0.7071 0.7071 -346.7323 -42.8162)">
				<stop  offset="0" style="stop-color:#FFFFFF;stop-opacity:0"/>
				<stop  offset="9.520561e-002" style="stop-color:#F7F7F8;stop-opacity:9.520561e-002"/>
				<stop  offset="0.2447" style="stop-color:#E0E2E4;stop-opacity:0.2447"/>
				<stop  offset="0.4297" style="stop-color:#BCBFC3;stop-opacity:0.4297"/>
				<stop  offset="0.6432" style="stop-color:#898F96;stop-opacity:0.6432"/>
				<stop  offset="0.8776" style="stop-color:#49525D;stop-opacity:0.8776"/>
				<stop  offset="1" style="stop-color:#242F3D"/>
			</linearGradient>
			<path class="st12" d="M-201.3,409.5c-0.9,0.4-1.9,0.9-2.8,1.3c1,3.2,1.6,6.1,0.3,7.4c-0.1,0.1-0.3,0.2-0.4,0.3l6.4,2.2
				c1.1-1.9,1.4-4.3,1-7.2c-0.3-1.8-0.8-3.7-1.4-5.5C-199.3,408.5-200.3,409-201.3,409.5z"/>
		</g>
		<g>
			<path class="st0" d="M-217.3,378.2c1.3,2.7,2.6,5.1,4.3,6.8c1.7,1.7,4.1,3,6.7,4.3c0.3-0.8,0.6-1.6,0.9-2.4
				c0.4-1.2,0.9-2.4,1.3-3.6c-1.8-0.9-3.5-1.8-4.4-2.8c-1.4-1.4-2.7-4.3-4-7.2c-0.4-0.8-0.7-1.6-1.1-2.4L-217.3,378.2z"/>
			<path class="st0" d="M-199.4,389.1c-0.4,1-0.7,1.9-1.1,2.9c3,1.5,5.5,3.2,5.5,5c0,0.2,0,0.4-0.1,0.6l6.1-3
				c-0.6-2.1-2.1-4-4.4-5.7c-1.5-1.1-3.2-2-4.9-2.9C-198.7,387-199,388-199.4,389.1z"/>
		</g>
		<g>
			
				<linearGradient id="SVGID_11_" gradientUnits="userSpaceOnUse" x1="-164.8546" y1="442.934" x2="-164.8546" y2="429.7327" gradientTransform="matrix(-0.7071 -0.7071 0.7071 -0.7071 -651.9351 566.8776)">
				<stop  offset="0" style="stop-color:#242F3D"/>
				<stop  offset="0.1224" style="stop-color:#49525D;stop-opacity:0.8776"/>
				<stop  offset="0.3568" style="stop-color:#898F96;stop-opacity:0.6432"/>
				<stop  offset="0.5703" style="stop-color:#BCBFC3;stop-opacity:0.4297"/>
				<stop  offset="0.7553" style="stop-color:#E0E2E4;stop-opacity:0.2447"/>
				<stop  offset="0.9048" style="stop-color:#F7F7F8;stop-opacity:9.520561e-002"/>
				<stop  offset="1" style="stop-color:#FFFFFF;stop-opacity:0"/>
			</linearGradient>
			<path class="st13" d="M-232.9,378.2c2.8,1,5.4,1.8,7.8,1.8c2.4,0,5-0.8,7.8-1.7c-0.4-0.8-0.7-1.5-1.1-2.3
				c-0.5-1.2-1.1-2.4-1.6-3.5c-1.9,0.7-3.7,1.2-5.1,1.2c-2,0-5-1.1-7.9-2.2c-0.8-0.3-1.6-0.6-2.5-0.9L-232.9,378.2z"/>
			
				<linearGradient id="SVGID_12_" gradientUnits="userSpaceOnUse" x1="-176.5171" y1="458.0194" x2="-176.5171" y2="446.5364" gradientTransform="matrix(-0.7071 -0.7071 0.7071 -0.7071 -651.9351 566.8776)">
				<stop  offset="0" style="stop-color:#FFFFFF;stop-opacity:0"/>
				<stop  offset="9.520561e-002" style="stop-color:#F7F7F8;stop-opacity:9.520561e-002"/>
				<stop  offset="0.2447" style="stop-color:#E0E2E4;stop-opacity:0.2447"/>
				<stop  offset="0.4297" style="stop-color:#BCBFC3;stop-opacity:0.4297"/>
				<stop  offset="0.6432" style="stop-color:#898F96;stop-opacity:0.6432"/>
				<stop  offset="0.8776" style="stop-color:#49525D;stop-opacity:0.8776"/>
				<stop  offset="1" style="stop-color:#242F3D"/>
			</linearGradient>
			<path class="st14" d="M-212.5,373.3c0.4,0.9,0.9,1.9,1.3,2.8c3.2-1,6.1-1.6,7.4-0.3c0.1,0.1,0.2,0.3,0.3,0.4l2.2-6.4
				c-1.9-1.1-4.3-1.4-7.2-1c-1.8,0.3-3.7,0.8-5.5,1.4C-213.5,371.3-213,372.3-212.5,373.3z"/>
		</g>
		<g class="st15">
			<path class="st0" d="M-243.8,389.3c2.7-1.3,5.1-2.6,6.8-4.3c1.7-1.7,3-4.1,4.3-6.7c-0.8-0.3-1.6-0.6-2.4-0.9
				c-1.2-0.4-2.4-0.9-3.6-1.3c-0.9,1.8-1.8,3.5-2.8,4.4c-1.4,1.4-4.3,2.7-7.2,4c-0.8,0.4-1.6,0.7-2.4,1.1L-243.8,389.3z"/>
			<path class="st0" d="M-232.9,371.4c1,0.4,1.9,0.7,2.9,1.1c1.5-3,3.2-5.5,5-5.5c0.2,0,0.4,0,0.6,0.1l-3-6.1
				c-2.1,0.6-4,2.1-5.7,4.4c-1.1,1.5-2,3.2-2.9,4.9C-235,370.7-234,371-232.9,371.4z"/>
		</g>
		<g class="st15">
			
				<linearGradient id="SVGID_13_" gradientUnits="userSpaceOnUse" x1="-189.7905" y1="486.0866" x2="-189.7905" y2="472.8854" gradientTransform="matrix(-0.7071 0.7071 -0.7071 -0.7071 -42.2413 872.0805)">
				<stop  offset="0" style="stop-color:#242F3D"/>
				<stop  offset="0.1224" style="stop-color:#49525D;stop-opacity:0.8776"/>
				<stop  offset="0.3568" style="stop-color:#898F96;stop-opacity:0.6432"/>
				<stop  offset="0.5703" style="stop-color:#BCBFC3;stop-opacity:0.4297"/>
				<stop  offset="0.7553" style="stop-color:#E0E2E4;stop-opacity:0.2447"/>
				<stop  offset="0.9048" style="stop-color:#F7F7F8;stop-opacity:9.520561e-002"/>
				<stop  offset="1" style="stop-color:#FFFFFF;stop-opacity:0"/>
			</linearGradient>
			<path class="st16" d="M-243.8,404.9c1-2.8,1.8-5.4,1.8-7.8c0-2.4-0.8-5-1.7-7.8c-0.8,0.4-1.5,0.7-2.3,1.1
				c-1.2,0.5-2.4,1.1-3.5,1.6c0.7,1.9,1.2,3.7,1.2,5.1c0,2-1.1,5-2.2,7.9c-0.3,0.8-0.6,1.6-0.9,2.5L-243.8,404.9z"/>
			
				<linearGradient id="SVGID_14_" gradientUnits="userSpaceOnUse" x1="-201.453" y1="501.1722" x2="-201.453" y2="489.6891" gradientTransform="matrix(-0.7071 0.7071 -0.7071 -0.7071 -42.2413 872.0805)">
				<stop  offset="0" style="stop-color:#FFFFFF;stop-opacity:0"/>
				<stop  offset="9.520561e-002" style="stop-color:#F7F7F8;stop-opacity:9.520561e-002"/>
				<stop  offset="0.2447" style="stop-color:#E0E2E4;stop-opacity:0.2447"/>
				<stop  offset="0.4297" style="stop-color:#BCBFC3;stop-opacity:0.4297"/>
				<stop  offset="0.6432" style="stop-color:#898F96;stop-opacity:0.6432"/>
				<stop  offset="0.8776" style="stop-color:#49525D;stop-opacity:0.8776"/>
				<stop  offset="1" style="stop-color:#242F3D"/>
			</linearGradient>
			<path class="st17" d="M-248.7,384.5c0.9-0.4,1.9-0.9,2.8-1.3c-1-3.2-1.6-6.1-0.3-7.4c0.1-0.1,0.3-0.2,0.4-0.3l-6.4-2.2
				c-1.1,1.9-1.4,4.3-1,7.2c0.3,1.8,0.8,3.7,1.4,5.5C-250.7,385.5-249.7,385-248.7,384.5z"/>
		</g>
		<g>
			<path class="st0" d="M-232.7,415.8c-1.3-2.7-2.6-5.1-4.3-6.8c-1.7-1.7-4.1-3-6.7-4.3c-0.3,0.8-0.6,1.6-0.9,2.4
				c-0.4,1.2-0.9,2.4-1.3,3.6c1.8,0.9,3.5,1.8,4.4,2.8c1.4,1.4,2.7,4.3,4,7.2c0.4,0.8,0.7,1.6,1.1,2.4L-232.7,415.8z"/>
			<path class="st0" d="M-250.6,404.9c0.4-1,0.7-1.9,1.1-2.9c-3-1.5-5.5-3.2-5.5-5c0-0.2,0-0.4,0.1-0.6l-6.1,3
				c0.6,2.1,2.1,4,4.4,5.7c1.5,1.1,3.2,2,4.9,2.9C-251.3,407-251,406-250.6,404.9z"/>
		</g>
		<g>
			
				<linearGradient id="SVGID_15_" gradientUnits="userSpaceOnUse" x1="-232.9431" y1="461.1508" x2="-232.9431" y2="447.9495" gradientTransform="matrix(0.7071 0.7071 -0.7071 0.7071 262.9615 262.3866)">
				<stop  offset="0" style="stop-color:#242F3D"/>
				<stop  offset="0.1224" style="stop-color:#49525D;stop-opacity:0.8776"/>
				<stop  offset="0.3568" style="stop-color:#898F96;stop-opacity:0.6432"/>
				<stop  offset="0.5703" style="stop-color:#BCBFC3;stop-opacity:0.4297"/>
				<stop  offset="0.7553" style="stop-color:#E0E2E4;stop-opacity:0.2447"/>
				<stop  offset="0.9048" style="stop-color:#F7F7F8;stop-opacity:9.520561e-002"/>
				<stop  offset="1" style="stop-color:#FFFFFF;stop-opacity:0"/>
			</linearGradient>
			<path class="st18" d="M-217.1,415.8c-2.8-1-5.4-1.8-7.8-1.8c-2.4,0-5,0.8-7.8,1.7c0.4,0.8,0.7,1.5,1.1,2.3
				c0.5,1.2,1.1,2.4,1.6,3.5c1.9-0.7,3.7-1.2,5.1-1.2c2,0,5,1.1,7.9,2.2c0.8,0.3,1.6,0.6,2.5,0.9L-217.1,415.8z"/>
			
				<linearGradient id="SVGID_16_" gradientUnits="userSpaceOnUse" x1="-244.6056" y1="476.2363" x2="-244.6056" y2="464.7532" gradientTransform="matrix(0.7071 0.7071 -0.7071 0.7071 262.9615 262.3866)">
				<stop  offset="0" style="stop-color:#FFFFFF;stop-opacity:0"/>
				<stop  offset="9.520561e-002" style="stop-color:#F7F7F8;stop-opacity:9.520561e-002"/>
				<stop  offset="0.2447" style="stop-color:#E0E2E4;stop-opacity:0.2447"/>
				<stop  offset="0.4297" style="stop-color:#BCBFC3;stop-opacity:0.4297"/>
				<stop  offset="0.6432" style="stop-color:#898F96;stop-opacity:0.6432"/>
				<stop  offset="0.8776" style="stop-color:#49525D;stop-opacity:0.8776"/>
				<stop  offset="1" style="stop-color:#242F3D"/>
			</linearGradient>
			<path class="st19" d="M-237.5,420.7c-0.4-0.9-0.9-1.9-1.3-2.8c-3.2,1-6.1,1.6-7.4,0.3c-0.1-0.1-0.2-0.3-0.3-0.4l-2.2,6.4
				c1.9,1.1,4.3,1.4,7.2,1c1.8-0.3,3.7-0.8,5.5-1.4C-236.5,422.7-237,421.7-237.5,420.7z"/>
		</g>
		<g>
			<path class="st0" d="M-206.2,404.7c-2.7,1.3-5.1,2.6-6.8,4.3c-1.7,1.7-3,4.1-4.3,6.7c0.8,0.3,1.6,0.6,2.4,0.9
				c1.2,0.4,2.4,0.9,3.6,1.3c0.9-1.8,1.8-3.5,2.8-4.4c1.4-1.4,4.3-2.7,7.2-4c0.8-0.4,1.6-0.7,2.4-1.1L-206.2,404.7z"/>
			<path class="st0" d="M-217.1,422.6c-1-0.4-1.9-0.7-2.9-1.1c-1.5,3-3.2,5.5-5,5.5c-0.2,0-0.4,0-0.6-0.1l3,6.1
				c2.1-0.6,4-2.1,5.7-4.4c1.1-1.5,2-3.2,2.9-4.9C-215,423.3-216,423-217.1,422.6z"/>
		</g>
	</g>
	
		<linearGradient id="SVGID_17_" gradientUnits="userSpaceOnUse" x1="-253.2874" y1="374.3918" x2="-224.94" y2="374.3918" gradientTransform="matrix(0.7071 -0.7071 0.7071 0.7071 -346.7323 -42.8162)">
		<stop  offset="0" style="stop-color:#FFFFFF"/>
		<stop  offset="0.797" style="stop-color:#FFFFFF;stop-opacity:0"/>
	</linearGradient>
	<path class="st20" d="M-258.2,403.9c-4.6-4.2,4.2-9.4,6.2-10.6c1.7-1.1,3.9-2.1,5.9-3c3.5-1.6,6.8-3.1,9-5.3l-4.5-4.5
		c-1.4,1.4-4.3,2.7-7.2,4c-2.8,1.3-5.7,2.6-8,4.3c-3.1,2.3-4.7,5.1-4.7,8.2C-261.4,399.6-260.3,401.9-258.2,403.9
		C-258.2,403.9-258.2,403.9-258.2,403.9z"/>
	
		<linearGradient id="SVGID_18_" gradientUnits="userSpaceOnUse" x1="-253.3657" y1="374.3134" x2="-225.0187" y2="374.3134" gradientTransform="matrix(0 -1 1 0 -622 172)">
		<stop  offset="0" style="stop-color:#FFFFFF"/>
		<stop  offset="0.797" style="stop-color:#FFFFFF;stop-opacity:0"/>
	</linearGradient>
	<path class="st21" d="M-243.6,425.3c-6.2,0.3-3.7-9.6-3.1-11.8c0.4-2,1.3-4.2,2.1-6.3c1.3-3.6,2.6-7,2.6-10.1l-6.4,0
		c0,2-1.1,5-2.2,7.9c-1.1,2.9-2.2,5.9-2.6,8.7c-0.6,3.9,0.2,6.9,2.4,9.1C-248.9,424.6-246.5,425.5-243.6,425.3
		C-243.6,425.3-243.6,425.3-243.6,425.3z"/>
	
		<linearGradient id="SVGID_19_" gradientUnits="userSpaceOnUse" x1="-253.2874" y1="374.3918" x2="-224.9401" y2="374.3918" gradientTransform="matrix(-0.7071 -0.7071 0.7071 -0.7071 -664.8162 518.7323)">
		<stop  offset="0" style="stop-color:#FFFFFF"/>
		<stop  offset="0.797" style="stop-color:#FFFFFF;stop-opacity:0"/>
	</linearGradient>
	<path class="st22" d="M-218.1,430.2c-4.2,4.6-9.4-4.2-10.6-6.2c-1.1-1.7-2.1-3.9-3-5.9c-1.6-3.5-3.1-6.8-5.3-9l-4.5,4.5
		c1.4,1.4,2.7,4.3,4,7.2c1.3,2.8,2.6,5.7,4.3,8c2.3,3.1,5.1,4.7,8.2,4.7C-222.4,433.4-220.1,432.3-218.1,430.2
		C-218.1,430.2-218.1,430.2-218.1,430.2z"/>
	
		<linearGradient id="SVGID_20_" gradientUnits="userSpaceOnUse" x1="-253.3657" y1="374.3135" x2="-225.0186" y2="374.3135" gradientTransform="matrix(-1 0 0 -1 -450 794)">
		<stop  offset="0" style="stop-color:#FFFFFF"/>
		<stop  offset="0.797" style="stop-color:#FFFFFF;stop-opacity:0"/>
	</linearGradient>
	<path class="st23" d="M-196.7,415.6c0.3,6.2-9.6,3.7-11.8,3.1c-2-0.4-4.2-1.3-6.3-2.1c-3.6-1.3-7-2.6-10.1-2.6l0,6.4
		c2,0,5,1.1,7.9,2.2c2.9,1.1,5.9,2.2,8.7,2.6c3.9,0.6,6.9-0.2,9.1-2.4C-197.4,420.9-196.5,418.5-196.7,415.6
		C-196.7,415.6-196.7,415.6-196.7,415.6z"/>
	
		<linearGradient id="SVGID_21_" gradientUnits="userSpaceOnUse" x1="-253.2874" y1="374.3918" x2="-224.94" y2="374.3918" gradientTransform="matrix(-0.7071 0.7071 -0.7071 -0.7071 -103.2677 836.8162)">
		<stop  offset="0" style="stop-color:#FFFFFF"/>
		<stop  offset="0.797" style="stop-color:#FFFFFF;stop-opacity:0"/>
	</linearGradient>
	<path class="st24" d="M-191.8,390.1c4.6,4.2-4.2,9.4-6.2,10.6c-1.7,1.1-3.9,2.1-5.9,3c-3.5,1.6-6.8,3.1-9,5.3l4.5,4.5
		c1.4-1.4,4.3-2.7,7.2-4c2.8-1.3,5.7-2.6,8-4.3c3.1-2.3,4.7-5.1,4.7-8.2C-188.6,394.4-189.7,392.1-191.8,390.1
		C-191.8,390.1-191.8,390.1-191.8,390.1z"/>
	
		<linearGradient id="SVGID_22_" gradientUnits="userSpaceOnUse" x1="-253.3658" y1="374.3135" x2="-225.0187" y2="374.3135" gradientTransform="matrix(0 1 -1 0 172 622)">
		<stop  offset="0" style="stop-color:#FFFFFF"/>
		<stop  offset="0.797" style="stop-color:#FFFFFF;stop-opacity:0"/>
	</linearGradient>
	<path class="st25" d="M-206.4,368.7c6.2-0.3,3.7,9.6,3.1,11.8c-0.4,2-1.3,4.2-2.1,6.3c-1.3,3.6-2.6,7-2.6,10.1l6.4,0
		c0-2,1.1-5,2.2-7.9c1.1-2.9,2.2-5.9,2.6-8.7c0.6-3.9-0.2-6.9-2.4-9.1C-201.1,369.4-203.5,368.5-206.4,368.7
		C-206.4,368.7-206.4,368.7-206.4,368.7z"/>
	
		<linearGradient id="SVGID_23_" gradientUnits="userSpaceOnUse" x1="-253.2875" y1="374.3918" x2="-224.9401" y2="374.3918" gradientTransform="matrix(0.7071 0.7071 -0.7071 0.7071 214.8162 275.2677)">
		<stop  offset="0" style="stop-color:#FFFFFF"/>
		<stop  offset="0.797" style="stop-color:#FFFFFF;stop-opacity:0"/>
	</linearGradient>
	<path class="st26" d="M-231.9,363.8c4.2-4.6,9.4,4.2,10.6,6.2c1.1,1.7,2.1,3.9,3,5.9c1.6,3.5,3.1,6.8,5.3,9l4.5-4.5
		c-1.4-1.4-2.7-4.3-4-7.2c-1.3-2.8-2.6-5.7-4.3-8c-2.3-3.1-5.1-4.7-8.2-4.7C-227.6,360.6-229.9,361.7-231.9,363.8
		C-231.9,363.8-231.9,363.8-231.9,363.8z"/>
	<linearGradient id="SVGID_24_" gradientUnits="userSpaceOnUse" x1="-253.3657" y1="374.3135" x2="-225.0186" y2="374.3135">
		<stop  offset="0" style="stop-color:#FFFFFF"/>
		<stop  offset="0.797" style="stop-color:#FFFFFF;stop-opacity:0"/>
	</linearGradient>
	<path class="st27" d="M-253.3,378.4c-0.3-6.2,9.6-3.7,11.8-3.1c2,0.4,4.2,1.3,6.3,2.1c3.6,1.3,7,2.6,10.1,2.6l0-6.4
		c-2,0-5-1.1-7.9-2.2c-2.9-1.1-5.9-2.2-8.7-2.6c-3.9-0.6-6.9,0.2-9.1,2.4C-252.6,373.1-253.5,375.5-253.3,378.4
		C-253.3,378.4-253.3,378.4-253.3,378.4z"/>
	<g>
		<defs>
			<path id="SVGID_25_" d="M-253.3,378.4c-0.3-6.2,9.6-3.7,11.8-3.1c2,0.4,4.2,1.3,6.3,2.1c3.6,1.3,7,2.6,10.1,2.6l0-6.4
				c-2,0-5-1.1-7.9-2.2c-2.9-1.1-5.9-2.2-8.7-2.6c-3.9-0.6-6.9,0.2-9.1,2.4C-252.6,373.1-253.5,375.5-253.3,378.4
				C-253.3,378.4-253.3,378.4-253.3,378.4z"/>
		</defs>
		<clipPath id="SVGID_26_">
			<use xlink:href="#SVGID_25_"  style="overflow:visible;"/>
		</clipPath>
		<g class="st28">
			<linearGradient id="SVGID_27_" gradientUnits="userSpaceOnUse" x1="-255.3303" y1="376.5518" x2="-225.0164" y2="376.5518">
				<stop  offset="0" style="stop-color:#FFFFFF"/>
				<stop  offset="1" style="stop-color:#FFFFFF;stop-opacity:0"/>
			</linearGradient>
			<path class="st29" d="M-253.4,378.5L-253.4,378.5L-253.4,378.5c-0.2-0.7-0.3-1.5-0.1-2.2c0.2-0.8,0.7-1.5,1.4-2
				c0.7-0.5,1.4-0.8,2.1-1.1c0.7-0.2,1.5-0.4,2.2-0.4c1.5-0.1,2.9-0.1,4.3,0.1c0.7,0.1,1.4,0.2,2.1,0.4l0.5,0.1l0.4,0.1l1,0.3
				c2.7,0.8,5.1,1.9,7.4,3.1c1.2,0.6,2.3,1.1,3.5,1.7c1.2,0.6,2.3,1,3.7,1.5c-1.3,0.4-2.7,0.5-4.1,0.4c-1.4-0.1-2.7-0.3-4-0.6
				c-1.3-0.3-2.6-0.7-3.8-1.1c-1.2-0.4-2.5-0.8-3.6-1.1l-0.9-0.2l-0.5-0.1l-0.4-0.1c-0.6-0.2-1.2-0.3-1.8-0.5
				c-1.2-0.3-2.4-0.5-3.6-0.7c-1.2-0.2-2.3-0.2-3.3,0.1c-0.5,0.1-0.9,0.4-1.3,0.8C-252.8,377.2-253.1,377.8-253.4,378.5
				L-253.4,378.5L-253.4,378.5z"/>
		</g>
	</g>
	<g class="st30">
		<defs>
			<path id="SVGID_28_" class="st30" d="M-258.2,403.9c-4.6-4.2,4.2-9.4,6.2-10.6c1.7-1.1,3.9-2.1,5.9-3c3.5-1.6,6.8-3.1,9-5.3
				l-4.5-4.5c-1.4,1.4-4.3,2.7-7.2,4c-2.8,1.3-5.7,2.6-8,4.3c-3.1,2.3-4.7,5.1-4.7,8.2C-261.4,399.6-260.3,401.9-258.2,403.9
				C-258.2,403.9-258.2,403.9-258.2,403.9z"/>
		</defs>
		<clipPath id="SVGID_29_">
			<use xlink:href="#SVGID_28_"  style="overflow:visible;"/>
		</clipPath>
		<g class="st31">
			<linearGradient id="SVGID_30_" gradientUnits="userSpaceOnUse" x1="-260.9057" y1="403.9876" x2="-239.4706" y2="382.5525">
				<stop  offset="0" style="stop-color:#FFFFFF"/>
				<stop  offset="1" style="stop-color:#FFFFFF;stop-opacity:0"/>
			</linearGradient>
			<path class="st32" d="M-258.1,404L-258.1,404L-258.1,404c-0.7-0.3-1.3-0.8-1.7-1.5c-0.4-0.7-0.5-1.6-0.5-2.4
				c0.1-0.8,0.4-1.6,0.7-2.3c0.4-0.7,0.8-1.3,1.3-1.9c0.9-1.1,2-2.1,3.1-2.9c0.6-0.4,1.1-0.8,1.7-1.2l0.5-0.3l0.4-0.2l0.9-0.5
				c2.4-1.3,4.9-2.2,7.4-3.1c1.2-0.4,2.4-0.8,3.7-1.3c1.2-0.4,2.4-0.9,3.6-1.5c-0.6,1.2-1.6,2.3-2.6,3.2c-1,0.9-2.2,1.7-3.3,2.4
				c-1.1,0.7-2.3,1.3-3.5,2c-1.1,0.6-2.3,1.2-3.4,1.8l-0.8,0.4l-0.5,0.3l-0.4,0.2c-0.5,0.3-1.1,0.6-1.6,0.9c-1.1,0.6-2.1,1.3-3,2
				c-0.9,0.7-1.8,1.5-2.3,2.4c-0.3,0.4-0.4,0.9-0.4,1.5C-258.7,402.7-258.5,403.3-258.1,404L-258.1,404L-258.1,404z"/>
		</g>
	</g>
	<g class="st33">
		<defs>
			<path id="SVGID_31_" class="st33" d="M-243.6,425.3c-6.2,0.3-3.7-9.6-3.1-11.8c0.4-2,1.3-4.2,2.1-6.3c1.3-3.6,2.6-7,2.6-10.1
				l-6.4,0c0,2-1.1,5-2.2,7.9c-1.1,2.9-2.2,5.9-2.6,8.7c-0.6,3.9,0.2,6.9,2.4,9.1C-248.9,424.6-246.5,425.5-243.6,425.3
				C-243.6,425.3-243.6,425.3-243.6,425.3z"/>
		</defs>
		<clipPath id="SVGID_32_">
			<use xlink:href="#SVGID_31_"  style="overflow:visible;"/>
		</clipPath>
		<g class="st34">
			<linearGradient id="SVGID_33_" gradientUnits="userSpaceOnUse" x1="-245.4482" y1="427.3301" x2="-245.4482" y2="397.0165">
				<stop  offset="0" style="stop-color:#FFFFFF"/>
				<stop  offset="1" style="stop-color:#FFFFFF;stop-opacity:0"/>
			</linearGradient>
			<path class="st35" d="M-243.5,425.4L-243.5,425.4L-243.5,425.4c-0.7,0.2-1.5,0.3-2.2,0.1c-0.8-0.2-1.5-0.7-2-1.4
				c-0.5-0.7-0.8-1.4-1.1-2.1c-0.2-0.7-0.4-1.5-0.4-2.2c-0.1-1.5-0.1-2.9,0.1-4.3c0.1-0.7,0.2-1.4,0.4-2.1l0.1-0.5l0.1-0.4l0.3-1
				c0.8-2.7,1.9-5.1,3.1-7.4c0.6-1.2,1.1-2.3,1.7-3.5c0.6-1.2,1-2.3,1.5-3.7c0.4,1.3,0.5,2.7,0.4,4.1c-0.1,1.4-0.3,2.7-0.6,4
				c-0.3,1.3-0.7,2.6-1.1,3.8c-0.4,1.2-0.8,2.5-1.1,3.6l-0.2,0.9l-0.1,0.5l-0.1,0.4c-0.2,0.6-0.3,1.2-0.5,1.8
				c-0.3,1.2-0.5,2.4-0.7,3.6c-0.2,1.2-0.2,2.3,0.1,3.3c0.1,0.5,0.4,0.9,0.8,1.3C-244.8,424.8-244.2,425.1-243.5,425.4L-243.5,425.4
				L-243.5,425.4z"/>
		</g>
	</g>
	<g class="st36">
		<defs>
			<path id="SVGID_34_" class="st36" d="M-218.1,430.2c-4.2,4.6-9.4-4.2-10.6-6.2c-1.1-1.7-2.1-3.9-3-5.9c-1.6-3.5-3.1-6.8-5.3-9
				l-4.5,4.5c1.4,1.4,2.7,4.3,4,7.2c1.3,2.8,2.6,5.7,4.3,8c2.3,3.1,5.1,4.7,8.2,4.7C-222.4,433.4-220.1,432.3-218.1,430.2
				C-218.1,430.2-218.1,430.2-218.1,430.2z"/>
		</defs>
		<clipPath id="SVGID_35_">
			<use xlink:href="#SVGID_34_"  style="overflow:visible;"/>
		</clipPath>
		<g class="st37">
			<linearGradient id="SVGID_36_" gradientUnits="userSpaceOnUse" x1="-218.0124" y1="432.9056" x2="-239.4473" y2="411.4707">
				<stop  offset="0" style="stop-color:#FFFFFF"/>
				<stop  offset="1" style="stop-color:#FFFFFF;stop-opacity:0"/>
			</linearGradient>
			<path class="st38" d="M-218,430.1L-218,430.1L-218,430.1c-0.3,0.7-0.8,1.3-1.5,1.7c-0.7,0.4-1.6,0.5-2.4,0.5
				c-0.8-0.1-1.6-0.4-2.3-0.7c-0.7-0.4-1.3-0.8-1.9-1.3c-1.1-0.9-2.1-2-2.9-3.1c-0.4-0.6-0.8-1.1-1.2-1.7l-0.3-0.5l-0.2-0.4
				l-0.5-0.9c-1.3-2.4-2.2-4.9-3.1-7.4c-0.4-1.2-0.8-2.4-1.3-3.7c-0.4-1.2-0.9-2.4-1.5-3.6c1.2,0.6,2.3,1.6,3.2,2.6
				c0.9,1,1.7,2.2,2.4,3.3c0.7,1.1,1.3,2.3,2,3.5c0.6,1.1,1.2,2.3,1.8,3.4l0.4,0.8l0.3,0.5l0.2,0.4c0.3,0.5,0.6,1.1,0.9,1.6
				c0.6,1.1,1.3,2.1,2,3c0.7,0.9,1.5,1.8,2.4,2.3c0.4,0.3,0.9,0.4,1.5,0.4C-219.3,430.7-218.7,430.5-218,430.1L-218,430.1
				L-218,430.1z"/>
		</g>
	</g>
	<g class="st39">
		<defs>
			<path id="SVGID_37_" class="st39" d="M-196.7,415.6c0.3,6.2-9.6,3.7-11.8,3.1c-2-0.4-4.2-1.3-6.3-2.1c-3.6-1.3-7-2.6-10.1-2.6
				l0,6.4c2,0,5,1.1,7.9,2.2c2.9,1.1,5.9,2.2,8.7,2.6c3.9,0.6,6.9-0.2,9.1-2.4C-197.4,420.9-196.5,418.5-196.7,415.6
				C-196.7,415.6-196.7,415.6-196.7,415.6z"/>
		</defs>
		<clipPath id="SVGID_38_">
			<use xlink:href="#SVGID_37_"  style="overflow:visible;"/>
		</clipPath>
		<g class="st40">
			<linearGradient id="SVGID_39_" gradientUnits="userSpaceOnUse" x1="-194.6698" y1="417.4481" x2="-224.9836" y2="417.4481">
				<stop  offset="0" style="stop-color:#FFFFFF"/>
				<stop  offset="1" style="stop-color:#FFFFFF;stop-opacity:0"/>
			</linearGradient>
			<path class="st41" d="M-196.6,415.5L-196.6,415.5L-196.6,415.5c0.2,0.7,0.3,1.5,0.1,2.2c-0.2,0.8-0.7,1.5-1.4,2
				c-0.7,0.5-1.4,0.8-2.1,1.1c-0.7,0.2-1.5,0.4-2.2,0.4c-1.5,0.1-2.9,0.1-4.3-0.1c-0.7-0.1-1.4-0.2-2.1-0.4l-0.5-0.1l-0.4-0.1
				l-1-0.3c-2.7-0.8-5.1-1.9-7.4-3.1c-1.2-0.6-2.3-1.1-3.5-1.7c-1.2-0.6-2.3-1-3.7-1.5c1.3-0.4,2.7-0.5,4.1-0.4
				c1.4,0.1,2.7,0.3,4,0.6c1.3,0.3,2.6,0.7,3.8,1.1c1.2,0.4,2.5,0.8,3.6,1.1l0.9,0.2l0.5,0.1l0.4,0.1c0.6,0.2,1.2,0.3,1.8,0.5
				c1.2,0.3,2.4,0.5,3.6,0.7c1.2,0.2,2.3,0.2,3.3-0.1c0.5-0.1,0.9-0.4,1.3-0.8C-197.2,416.8-196.9,416.2-196.6,415.5L-196.6,415.5
				L-196.6,415.5z"/>
		</g>
	</g>
	<g class="st36">
		<defs>
			<path id="SVGID_40_" class="st36" d="M-191.8,390.1c4.6,4.2-4.2,9.4-6.2,10.6c-1.7,1.1-3.9,2.1-5.9,3c-3.5,1.6-6.8,3.1-9,5.3
				l4.5,4.5c1.4-1.4,4.3-2.7,7.2-4c2.8-1.3,5.7-2.6,8-4.3c3.1-2.3,4.7-5.1,4.7-8.2C-188.6,394.4-189.7,392.1-191.8,390.1
				C-191.8,390.1-191.8,390.1-191.8,390.1z"/>
		</defs>
		<clipPath id="SVGID_41_">
			<use xlink:href="#SVGID_40_"  style="overflow:visible;"/>
		</clipPath>
		<g class="st42">
			<linearGradient id="SVGID_42_" gradientUnits="userSpaceOnUse" x1="-189.0943" y1="390.0123" x2="-210.5294" y2="411.4474">
				<stop  offset="0" style="stop-color:#FFFFFF"/>
				<stop  offset="1" style="stop-color:#FFFFFF;stop-opacity:0"/>
			</linearGradient>
			<path class="st43" d="M-191.9,390L-191.9,390L-191.9,390c0.7,0.3,1.3,0.8,1.7,1.5c0.4,0.7,0.5,1.6,0.5,2.4
				c-0.1,0.8-0.4,1.6-0.7,2.3c-0.4,0.7-0.8,1.3-1.3,1.9c-0.9,1.1-2,2.1-3.1,2.9c-0.6,0.4-1.1,0.8-1.7,1.2l-0.5,0.3l-0.4,0.2
				l-0.9,0.5c-2.4,1.3-4.9,2.2-7.4,3.1c-1.2,0.4-2.4,0.8-3.7,1.3c-1.2,0.4-2.4,0.9-3.6,1.5c0.6-1.2,1.6-2.3,2.6-3.2
				c1-0.9,2.2-1.7,3.3-2.4c1.1-0.7,2.3-1.3,3.5-2c1.1-0.6,2.3-1.2,3.4-1.8l0.8-0.4l0.5-0.3l0.4-0.2c0.5-0.3,1.1-0.6,1.6-0.9
				c1.1-0.6,2.1-1.3,3-2c0.9-0.7,1.8-1.5,2.3-2.4c0.3-0.4,0.4-0.9,0.4-1.5C-191.3,391.3-191.5,390.7-191.9,390L-191.9,390
				L-191.9,390z"/>
		</g>
	</g>
	<g class="st33">
		<defs>
			<path id="SVGID_43_" class="st33" d="M-206.4,368.7c6.2-0.3,3.7,9.6,3.1,11.8c-0.4,2-1.3,4.2-2.1,6.3c-1.3,3.6-2.6,7-2.6,10.1
				l6.4,0c0-2,1.1-5,2.2-7.9c1.1-2.9,2.2-5.9,2.6-8.7c0.6-3.9-0.2-6.9-2.4-9.1C-201.1,369.4-203.5,368.5-206.4,368.7
				C-206.4,368.7-206.4,368.7-206.4,368.7z"/>
		</defs>
		<clipPath id="SVGID_44_">
			<use xlink:href="#SVGID_43_"  style="overflow:visible;"/>
		</clipPath>
		<g class="st44">
			<linearGradient id="SVGID_45_" gradientUnits="userSpaceOnUse" x1="-204.5519" y1="366.6698" x2="-204.5519" y2="396.9835">
				<stop  offset="0" style="stop-color:#FFFFFF"/>
				<stop  offset="1" style="stop-color:#FFFFFF;stop-opacity:0"/>
			</linearGradient>
			<path class="st45" d="M-206.5,368.6L-206.5,368.6L-206.5,368.6c0.7-0.2,1.5-0.3,2.2-0.1c0.8,0.2,1.5,0.7,2,1.4
				c0.5,0.7,0.8,1.4,1.1,2.1c0.2,0.7,0.4,1.5,0.4,2.2c0.1,1.5,0.1,2.9-0.1,4.3c-0.1,0.7-0.2,1.4-0.4,2.1l-0.1,0.5l-0.1,0.4l-0.3,1
				c-0.8,2.7-1.9,5.1-3.1,7.4c-0.6,1.2-1.1,2.3-1.7,3.5c-0.6,1.2-1,2.3-1.5,3.7c-0.4-1.3-0.5-2.7-0.4-4.1c0.1-1.4,0.3-2.7,0.6-4
				c0.3-1.3,0.7-2.6,1.1-3.8c0.4-1.2,0.8-2.5,1.1-3.6l0.2-0.9l0.1-0.5l0.1-0.4c0.2-0.6,0.3-1.2,0.5-1.8c0.3-1.2,0.5-2.4,0.7-3.6
				c0.2-1.2,0.2-2.3-0.1-3.3c-0.1-0.5-0.4-0.9-0.8-1.3C-205.2,369.2-205.8,368.9-206.5,368.6L-206.5,368.6L-206.5,368.6z"/>
		</g>
	</g>
	<g class="st30">
		<defs>
			<path id="SVGID_46_" class="st30" d="M-231.9,363.8c4.2-4.6,9.4,4.2,10.6,6.2c1.1,1.7,2.1,3.9,3,5.9c1.6,3.5,3.1,6.8,5.3,9
				l4.5-4.5c-1.4-1.4-2.7-4.3-4-7.2c-1.3-2.8-2.6-5.7-4.3-8c-2.3-3.1-5.1-4.7-8.2-4.7C-227.6,360.6-229.9,361.7-231.9,363.8
				C-231.9,363.8-231.9,363.8-231.9,363.8z"/>
		</defs>
		<clipPath id="SVGID_47_">
			<use xlink:href="#SVGID_46_"  style="overflow:visible;"/>
		</clipPath>
		<g class="st46">
			<linearGradient id="SVGID_48_" gradientUnits="userSpaceOnUse" x1="-231.9877" y1="361.0944" x2="-210.5527" y2="382.5294">
				<stop  offset="0" style="stop-color:#FFFFFF"/>
				<stop  offset="1" style="stop-color:#FFFFFF;stop-opacity:0"/>
			</linearGradient>
			<path class="st47" d="M-232,363.9L-232,363.9L-232,363.9c0.3-0.7,0.8-1.3,1.5-1.7c0.7-0.4,1.6-0.5,2.4-0.5
				c0.8,0.1,1.6,0.4,2.3,0.7c0.7,0.4,1.3,0.8,1.9,1.3c1.1,0.9,2.1,2,2.9,3.1c0.4,0.6,0.8,1.1,1.2,1.7l0.3,0.5l0.2,0.4l0.5,0.9
				c1.3,2.4,2.2,4.9,3.1,7.4c0.4,1.2,0.8,2.4,1.3,3.7c0.4,1.2,0.9,2.4,1.5,3.6c-1.2-0.6-2.3-1.6-3.2-2.6c-0.9-1-1.7-2.2-2.4-3.3
				c-0.7-1.1-1.3-2.3-2-3.5c-0.6-1.1-1.2-2.3-1.8-3.4l-0.4-0.8l-0.3-0.5l-0.2-0.4c-0.3-0.5-0.6-1.1-0.9-1.6c-0.6-1.1-1.3-2.1-2-3
				c-0.7-0.9-1.5-1.8-2.4-2.3c-0.4-0.3-0.9-0.4-1.5-0.4C-230.7,363.3-231.3,363.5-232,363.9L-232,363.9L-232,363.9z"/>
		</g>
	</g>
</g>
</svg>
